# xmcd
#
# Track frame offsets: 
#        150
#        11850
#        21665
#        34484
#        45839
#        57318
#        66262
#        75519
#        86232
#        97084
#        107668
#        117594
#        126324
#        137669
#        148911
#        159131
#        169113
#        182765
#        192464
#        206118
#        217101
#        226904
#        240252
#        251130
#
# Disc length: 3490 seconds
#
# Revision: 4
# Processed by: cddbd v1.5.2PL0 Copyright (c) Steve Scherf et al.
# Submitted via: ExactAudioCopyFreeDBPlugin 1.0
#
DISCID=670da018
DTITLE=Various Artist - The Stax Story:  1958-1962 [Real Gone Music]
DYEAR=2016
DGENRE=Soul
TTITLE0=The Mar-Keys - Last Night
TTITLE1=The Mar-Keys - Night Before
TTITLE2=Prince Conley - I'm Goin' Home
TTITLE3=Prince Conley - All the Way
TTITLE4=Nick Charles - The Right Girl
TTITLE5=Nick Charles - Ain't That Love
TTITLE6=Hoyt Johnson - I Just Can't Learn to Say Goodbye
TTITLE7=Hoyt Johnson - Cindy
TTITLE8=Barbara Stephens - The Life I Live
TTITLE9=Barbara Stephens - I Don't Worry
TTITLE10=The Mar-Keys - Morning After
TTITLE11=The Mar-Keys - Diana
TTITLE12=The Mar-Keys - About Noon
TTITLE13=The Mar-Keys - Sack-O-Woe
TTITLE14=The Mar-Keys - Foxy
TTITLE15=The Mar-Keys - One Degree North
TTITLE16=William Bell - You Don't Miss Your Water
TTITLE17=William Bell - Formula of Love
TTITLE18=William Bell - Goofin' Off
TTITLE19=Barbara Stephens - Wait a Minute
TTITLE20=Barbara Stephens - Love is Like a Flower
TTITLE21=Nick Charles - Sunday Jealous
TTITLE22=Barbara Stephens - That's the Way it is with Me
TTITLE23=Barbara Stephens - If She Should Ever Break Your Heart
EXTD=
EXTT0=
EXTT1=
EXTT2=
EXTT3=
EXTT4=
EXTT5=
EXTT6=
EXTT7=
EXTT8=
EXTT9=
EXTT10=
EXTT11=
EXTT12=
EXTT13=
EXTT14=
EXTT15=
EXTT16=
EXTT17=
EXTT18=
EXTT19=
EXTT20=
EXTT21=
EXTT22=
EXTT23=
PLAYORDER=
